<mxfile host="app.diagrams.net" modified="2023-06-16T01:28:33.647Z" agent="Mozilla/5.0 (Windows NT 10.0; Win64; x64) AppleWebKit/537.36 (KHTML, like Gecko) Chrome/114.0.0.0 Safari/537.36" etag="RFyUDPIohH1OCmRA8TAx" version="21.4.0" type="device">
  <diagram name="페이지-1" id="iLm3zO_x4pYtyA4h_iFW">
    <mxGraphModel dx="1434" dy="756" grid="1" gridSize="10" guides="1" tooltips="1" connect="1" arrows="1" fold="1" page="1" pageScale="1" pageWidth="4681" pageHeight="3300" math="0" shadow="0">
      <root>
        <mxCell id="0" />
        <mxCell id="1" parent="0" />
        <mxCell id="x0YysL4C7jpsewEHTHlZ-9" style="rounded=0;orthogonalLoop=1;jettySize=auto;html=1;entryX=0.5;entryY=0;entryDx=0;entryDy=0;" edge="1" parent="1" source="x0YysL4C7jpsewEHTHlZ-1" target="x0YysL4C7jpsewEHTHlZ-2">
          <mxGeometry relative="1" as="geometry" />
        </mxCell>
        <mxCell id="x0YysL4C7jpsewEHTHlZ-10" style="edgeStyle=none;shape=connector;rounded=0;orthogonalLoop=1;jettySize=auto;html=1;entryX=0.5;entryY=0;entryDx=0;entryDy=0;labelBackgroundColor=default;strokeColor=default;fontFamily=Helvetica;fontSize=11;fontColor=default;endArrow=classic;" edge="1" parent="1" source="x0YysL4C7jpsewEHTHlZ-1" target="x0YysL4C7jpsewEHTHlZ-4">
          <mxGeometry relative="1" as="geometry" />
        </mxCell>
        <mxCell id="x0YysL4C7jpsewEHTHlZ-11" style="edgeStyle=none;shape=connector;rounded=0;orthogonalLoop=1;jettySize=auto;html=1;entryX=0.5;entryY=0;entryDx=0;entryDy=0;labelBackgroundColor=default;strokeColor=default;fontFamily=Helvetica;fontSize=11;fontColor=default;endArrow=classic;" edge="1" parent="1" source="x0YysL4C7jpsewEHTHlZ-1" target="x0YysL4C7jpsewEHTHlZ-5">
          <mxGeometry relative="1" as="geometry" />
        </mxCell>
        <mxCell id="x0YysL4C7jpsewEHTHlZ-12" style="edgeStyle=none;shape=connector;rounded=0;orthogonalLoop=1;jettySize=auto;html=1;entryX=0.5;entryY=0;entryDx=0;entryDy=0;labelBackgroundColor=default;strokeColor=default;fontFamily=Helvetica;fontSize=11;fontColor=default;endArrow=classic;" edge="1" parent="1" source="x0YysL4C7jpsewEHTHlZ-1" target="x0YysL4C7jpsewEHTHlZ-6">
          <mxGeometry relative="1" as="geometry" />
        </mxCell>
        <mxCell id="x0YysL4C7jpsewEHTHlZ-13" style="edgeStyle=none;shape=connector;rounded=0;orthogonalLoop=1;jettySize=auto;html=1;entryX=0.5;entryY=0;entryDx=0;entryDy=0;labelBackgroundColor=default;strokeColor=default;fontFamily=Helvetica;fontSize=11;fontColor=default;endArrow=classic;" edge="1" parent="1" source="x0YysL4C7jpsewEHTHlZ-1" target="x0YysL4C7jpsewEHTHlZ-7">
          <mxGeometry relative="1" as="geometry" />
        </mxCell>
        <mxCell id="x0YysL4C7jpsewEHTHlZ-1" value="상품정보" style="rounded=1;arcSize=10;whiteSpace=wrap;html=1;align=center;fillColor=#60a917;fontColor=#ffffff;strokeColor=#2D7600;" vertex="1" parent="1">
          <mxGeometry x="330" y="480" width="100" height="40" as="geometry" />
        </mxCell>
        <mxCell id="x0YysL4C7jpsewEHTHlZ-2" value="상품코드" style="ellipse;whiteSpace=wrap;html=1;align=center;fontStyle=4;fillColor=#d80073;strokeColor=#A50040;fontColor=#ffffff;" vertex="1" parent="1">
          <mxGeometry x="90" y="560" width="100" height="40" as="geometry" />
        </mxCell>
        <mxCell id="x0YysL4C7jpsewEHTHlZ-4" value="상품명" style="ellipse;whiteSpace=wrap;html=1;align=center;" vertex="1" parent="1">
          <mxGeometry x="210" y="560" width="100" height="40" as="geometry" />
        </mxCell>
        <mxCell id="x0YysL4C7jpsewEHTHlZ-5" value="품목" style="ellipse;whiteSpace=wrap;html=1;align=center;" vertex="1" parent="1">
          <mxGeometry x="330" y="560" width="100" height="40" as="geometry" />
        </mxCell>
        <mxCell id="x0YysL4C7jpsewEHTHlZ-6" value="매입단가" style="ellipse;whiteSpace=wrap;html=1;align=center;" vertex="1" parent="1">
          <mxGeometry x="450" y="560" width="100" height="40" as="geometry" />
        </mxCell>
        <mxCell id="x0YysL4C7jpsewEHTHlZ-7" value="매출단가" style="ellipse;whiteSpace=wrap;html=1;align=center;" vertex="1" parent="1">
          <mxGeometry x="570" y="560" width="100" height="40" as="geometry" />
        </mxCell>
        <mxCell id="x0YysL4C7jpsewEHTHlZ-14" style="rounded=0;orthogonalLoop=1;jettySize=auto;html=1;entryX=0.5;entryY=0;entryDx=0;entryDy=0;" edge="1" source="x0YysL4C7jpsewEHTHlZ-19" target="x0YysL4C7jpsewEHTHlZ-20" parent="1">
          <mxGeometry relative="1" as="geometry" />
        </mxCell>
        <mxCell id="x0YysL4C7jpsewEHTHlZ-15" style="edgeStyle=none;shape=connector;rounded=0;orthogonalLoop=1;jettySize=auto;html=1;entryX=0.5;entryY=0;entryDx=0;entryDy=0;labelBackgroundColor=default;strokeColor=default;fontFamily=Helvetica;fontSize=11;fontColor=default;endArrow=classic;" edge="1" source="x0YysL4C7jpsewEHTHlZ-19" target="x0YysL4C7jpsewEHTHlZ-21" parent="1">
          <mxGeometry relative="1" as="geometry" />
        </mxCell>
        <mxCell id="x0YysL4C7jpsewEHTHlZ-16" style="edgeStyle=none;shape=connector;rounded=0;orthogonalLoop=1;jettySize=auto;html=1;entryX=0.5;entryY=0;entryDx=0;entryDy=0;labelBackgroundColor=default;strokeColor=default;fontFamily=Helvetica;fontSize=11;fontColor=default;endArrow=classic;" edge="1" source="x0YysL4C7jpsewEHTHlZ-19" target="x0YysL4C7jpsewEHTHlZ-22" parent="1">
          <mxGeometry relative="1" as="geometry" />
        </mxCell>
        <mxCell id="x0YysL4C7jpsewEHTHlZ-17" style="edgeStyle=none;shape=connector;rounded=0;orthogonalLoop=1;jettySize=auto;html=1;entryX=0.5;entryY=0;entryDx=0;entryDy=0;labelBackgroundColor=default;strokeColor=default;fontFamily=Helvetica;fontSize=11;fontColor=default;endArrow=classic;" edge="1" source="x0YysL4C7jpsewEHTHlZ-19" target="x0YysL4C7jpsewEHTHlZ-23" parent="1">
          <mxGeometry relative="1" as="geometry" />
        </mxCell>
        <mxCell id="x0YysL4C7jpsewEHTHlZ-19" value="고객정보" style="rounded=1;arcSize=10;whiteSpace=wrap;html=1;align=center;fillColor=#60a917;fontColor=#ffffff;strokeColor=#2D7600;" vertex="1" parent="1">
          <mxGeometry x="1010" y="480" width="100" height="40" as="geometry" />
        </mxCell>
        <mxCell id="x0YysL4C7jpsewEHTHlZ-20" value="고객ID" style="ellipse;whiteSpace=wrap;html=1;align=center;fontStyle=4;fillColor=#d80073;strokeColor=#A50040;fontColor=#ffffff;" vertex="1" parent="1">
          <mxGeometry x="830" y="560" width="100" height="40" as="geometry" />
        </mxCell>
        <mxCell id="x0YysL4C7jpsewEHTHlZ-21" value="고객이름&lt;span style=&quot;white-space: pre;&quot;&gt;&#x9;&lt;/span&gt;" style="ellipse;whiteSpace=wrap;html=1;align=center;" vertex="1" parent="1">
          <mxGeometry x="950" y="560" width="100" height="40" as="geometry" />
        </mxCell>
        <mxCell id="x0YysL4C7jpsewEHTHlZ-22" value="전화번호" style="ellipse;whiteSpace=wrap;html=1;align=center;" vertex="1" parent="1">
          <mxGeometry x="1070" y="560" width="100" height="40" as="geometry" />
        </mxCell>
        <mxCell id="x0YysL4C7jpsewEHTHlZ-23" value="주소" style="ellipse;whiteSpace=wrap;html=1;align=center;" vertex="1" parent="1">
          <mxGeometry x="1190" y="560" width="100" height="40" as="geometry" />
        </mxCell>
        <mxCell id="x0YysL4C7jpsewEHTHlZ-46" style="edgeStyle=none;shape=connector;rounded=0;orthogonalLoop=1;jettySize=auto;html=1;entryX=0.5;entryY=1;entryDx=0;entryDy=0;labelBackgroundColor=default;strokeColor=default;fontFamily=Helvetica;fontSize=12;fontColor=default;endArrow=ERoneToMany;" edge="1" parent="1" source="x0YysL4C7jpsewEHTHlZ-25" target="x0YysL4C7jpsewEHTHlZ-37">
          <mxGeometry relative="1" as="geometry" />
        </mxCell>
        <mxCell id="x0YysL4C7jpsewEHTHlZ-47" style="edgeStyle=none;shape=connector;rounded=0;orthogonalLoop=1;jettySize=auto;html=1;entryX=0.5;entryY=1;entryDx=0;entryDy=0;labelBackgroundColor=default;strokeColor=default;fontFamily=Helvetica;fontSize=12;fontColor=default;endArrow=ERoneToMany;" edge="1" parent="1" source="x0YysL4C7jpsewEHTHlZ-25" target="x0YysL4C7jpsewEHTHlZ-30">
          <mxGeometry relative="1" as="geometry" />
        </mxCell>
        <mxCell id="x0YysL4C7jpsewEHTHlZ-48" style="edgeStyle=none;shape=connector;rounded=0;orthogonalLoop=1;jettySize=auto;html=1;entryX=0.5;entryY=1;entryDx=0;entryDy=0;labelBackgroundColor=default;strokeColor=default;fontFamily=Helvetica;fontSize=12;fontColor=default;endArrow=ERoneToMany;" edge="1" parent="1" source="x0YysL4C7jpsewEHTHlZ-25" target="x0YysL4C7jpsewEHTHlZ-31">
          <mxGeometry relative="1" as="geometry" />
        </mxCell>
        <mxCell id="x0YysL4C7jpsewEHTHlZ-49" style="edgeStyle=none;shape=connector;rounded=0;orthogonalLoop=1;jettySize=auto;html=1;entryX=0.5;entryY=1;entryDx=0;entryDy=0;labelBackgroundColor=default;strokeColor=default;fontFamily=Helvetica;fontSize=12;fontColor=default;endArrow=ERoneToMany;" edge="1" parent="1" source="x0YysL4C7jpsewEHTHlZ-25" target="x0YysL4C7jpsewEHTHlZ-32">
          <mxGeometry relative="1" as="geometry" />
        </mxCell>
        <mxCell id="x0YysL4C7jpsewEHTHlZ-50" style="edgeStyle=none;shape=connector;rounded=0;orthogonalLoop=1;jettySize=auto;html=1;entryX=0.5;entryY=1;entryDx=0;entryDy=0;labelBackgroundColor=default;strokeColor=default;fontFamily=Helvetica;fontSize=12;fontColor=default;endArrow=ERoneToMany;" edge="1" parent="1" source="x0YysL4C7jpsewEHTHlZ-25" target="x0YysL4C7jpsewEHTHlZ-35">
          <mxGeometry relative="1" as="geometry" />
        </mxCell>
        <mxCell id="x0YysL4C7jpsewEHTHlZ-52" style="edgeStyle=none;shape=connector;rounded=0;orthogonalLoop=1;jettySize=auto;html=1;entryX=0.5;entryY=1;entryDx=0;entryDy=0;labelBackgroundColor=default;strokeColor=default;fontFamily=Helvetica;fontSize=12;fontColor=default;endArrow=ERoneToMany;" edge="1" parent="1" source="x0YysL4C7jpsewEHTHlZ-25" target="x0YysL4C7jpsewEHTHlZ-36">
          <mxGeometry relative="1" as="geometry" />
        </mxCell>
        <mxCell id="x0YysL4C7jpsewEHTHlZ-25" value="판매내역" style="shape=rhombus;perimeter=rhombusPerimeter;whiteSpace=wrap;html=1;align=center;fontFamily=Helvetica;fontSize=11;fontColor=default;" vertex="1" parent="1">
          <mxGeometry x="650" y="240" width="120" height="60" as="geometry" />
        </mxCell>
        <mxCell id="x0YysL4C7jpsewEHTHlZ-28" value="" style="fontSize=12;html=1;endArrow=ERoneToMany;rounded=0;labelBackgroundColor=default;strokeColor=default;fontFamily=Helvetica;fontColor=default;shape=connector;entryX=0.5;entryY=1;entryDx=0;entryDy=0;" edge="1" parent="1" target="x0YysL4C7jpsewEHTHlZ-25">
          <mxGeometry width="100" height="100" relative="1" as="geometry">
            <mxPoint x="380" y="480" as="sourcePoint" />
            <mxPoint x="480" y="380" as="targetPoint" />
          </mxGeometry>
        </mxCell>
        <mxCell id="x0YysL4C7jpsewEHTHlZ-29" value="" style="fontSize=12;html=1;endArrow=ERoneToMany;rounded=0;labelBackgroundColor=default;strokeColor=default;fontFamily=Helvetica;fontColor=default;shape=connector;" edge="1" parent="1">
          <mxGeometry width="100" height="100" relative="1" as="geometry">
            <mxPoint x="1060" y="480" as="sourcePoint" />
            <mxPoint x="710" y="300" as="targetPoint" />
          </mxGeometry>
        </mxCell>
        <mxCell id="x0YysL4C7jpsewEHTHlZ-30" value="거래일자" style="ellipse;whiteSpace=wrap;html=1;align=center;fontFamily=Helvetica;fontSize=11;fontColor=default;" vertex="1" parent="1">
          <mxGeometry x="490" y="160" width="100" height="40" as="geometry" />
        </mxCell>
        <mxCell id="x0YysL4C7jpsewEHTHlZ-31" value="거래시각" style="ellipse;whiteSpace=wrap;html=1;align=center;fontFamily=Helvetica;fontSize=11;fontColor=default;" vertex="1" parent="1">
          <mxGeometry x="610" y="160" width="100" height="40" as="geometry" />
        </mxCell>
        <mxCell id="x0YysL4C7jpsewEHTHlZ-32" value="수량" style="ellipse;whiteSpace=wrap;html=1;align=center;fontFamily=Helvetica;fontSize=11;fontColor=default;" vertex="1" parent="1">
          <mxGeometry x="730" y="160" width="100" height="40" as="geometry" />
        </mxCell>
        <mxCell id="x0YysL4C7jpsewEHTHlZ-35" value="판매단가" style="ellipse;whiteSpace=wrap;html=1;align=center;fontFamily=Helvetica;fontSize=11;fontColor=default;" vertex="1" parent="1">
          <mxGeometry x="850" y="160" width="100" height="40" as="geometry" />
        </mxCell>
        <mxCell id="x0YysL4C7jpsewEHTHlZ-36" value="판매금액" style="ellipse;whiteSpace=wrap;html=1;align=center;fontFamily=Helvetica;fontSize=11;fontColor=default;" vertex="1" parent="1">
          <mxGeometry x="970" y="160" width="100" height="40" as="geometry" />
        </mxCell>
        <mxCell id="x0YysL4C7jpsewEHTHlZ-37" value="SEQ" style="ellipse;whiteSpace=wrap;html=1;align=center;fontStyle=4;fillColor=#d80073;strokeColor=#A50040;fontColor=#ffffff;" vertex="1" parent="1">
          <mxGeometry x="370" y="160" width="100" height="40" as="geometry" />
        </mxCell>
      </root>
    </mxGraphModel>
  </diagram>
</mxfile>
